<?xml version="1.0" encoding="UTF-8"?>
<svg xmlns="http://www.w3.org/2000/svg" width="960" height="960" viewBox="0 0 960 960">
  <!-- Dexcom wordmark (the supplied brand logo), recoloured black per Homey's icon convention:
       Homey tints the icon itself, so the brand green (#56B146) lives only in brandColor, never
       in this markup - same convention every assets/capabilities/*.svg follows. Laid out on the
       960x960 canvas Homey wants, with ~10% (96px) breathing room on the left and right and
       centred vertically. The nested transform lifts the original paths out of their exported
       translate(-289,-417.03) offset, scales the tight 372x55 wordmark to 768px wide (768/372),
       and centres the result: outer translate(96, 423.226) = the L/R margin and the vertical
       centring gap ((960 - 55*scale)/2). Re-derive those two numbers the same way if the margin
       or canvas ever changes, rather than hand-nudging them. -->
  <g fill="#000000">
    <g transform="translate(96, 423.226) scale(2.06452) translate(-289, -417.03)">
      <path d="M348.46,444.82c0-18.3,8.36-27.19,25.56-27.19,16.29,0,22.06,10,22.06,18.56a21.69,21.69,0,0,1-.59,4.68c-8.3,5.28-17.76,7.65-30.58,7.65H364v.87c0,11.35,3.45,14.62,11.16,14.62,6.24,0,10-1.42,11.19-2.67l8.27,4.14A33.85,33.85,0,0,1,374,472c-17.91,0-25.56-8.12-25.56-27.2M364,441v.88h.88c9,0,11.52-1.35,16.11-3.75l.5-.26.11-.34a11.57,11.57,0,0,0,1-3.91c0-5.95-3.34-8.3-8.12-8.3-9.37,0-10.46,7.79-10.46,15.68"/>
      <path d="M456.64,418.8c-5.61,13.2-19.68,25-19.83,25.14l-.82.68.85.67c.17.13,16.38,12.93,20,25.58H442.15c-2.83-8.34-11.53-16.82-11.91-17.18l-.6-.59-.61.6c-.37.36-8.84,8.84-11.67,17.17H402.71c3.36-12.64,19.57-25.45,19.76-25.58l.84-.67-.83-.68c-.14-.12-14.22-11.94-19.6-25.14h15a38.61,38.61,0,0,0,11.28,16.78l.54.43.54-.43a40.3,40.3,0,0,0,11.51-16.77Z"/>
      <path d="M464.64,444.82c0-17.79,9.5-27.19,27.46-27.19a30.26,30.26,0,0,1,19.26,6.42c-1.68.85-7.52,3.76-8.5,4.25-1.09-1.3-4.21-2.42-10.32-2.42-8,0-11.83,5-11.83,18.94s3.87,19,11.83,19c6.12,0,9.24-1.21,10.34-2.53l8.48,4.25A29.9,29.9,0,0,1,492.1,472c-18,0-27.46-9.4-27.46-27.2"/>
      <path d="M518.49,444.82c0-17,9.83-27.19,26.26-27.19s26,10.17,26,27.19-9.72,27.2-26,27.2-26.26-10.17-26.26-27.2m16,0c0,13.95,3.16,18.37,10.21,18.37s10-4.23,10-18.37-3-18.35-10-18.35-10.21,4.42-10.21,18.35"/>
      <path d="M592.35,417.34c1.72.7,5.66,2.56,6.83,4.16l.49.64.67-.42a31.35,31.35,0,0,1,15.22-4.2c6.26,0,10.79,1.23,13.44,3.64l.42.39.52-.25c5.43-2.5,10.41-3.78,14.84-3.78,11.95,0,16.2,4.74,16.2,9.2v44.15H646.34V432.6c0-5.47-.59-7.06-4.59-7.06-7,0-9.76,4.79-9.87,5l-.12.2v40.12H617.12V432.6c0-5.47-.6-7.06-4.6-7.06-7,0-9.76,4.79-9.87,5l-.12.2v40.12H587.89V429.51c0-3.52-3.47-6.74-7.29-8.72l11.75-3.46"/>
      <path d="M289,417h20.45c18.92,0,28.1,8.94,28.1,27.32,0,18.52-9.19,27.54-28.1,27.54H289Zm15,8.41v38.13s1,0,5.95,0l2.45-.19,0,0c5.86-1.81,8.74-6.8,8.74-19,0-11-2.34-15.81-7.13-18.33a14.44,14.44,0,0,0-4.09-.59Z"/>
    </g>
  </g>
</svg>
